# xmcd
#
# Track frame offsets: 
#        150
#        16061
#        29732
#        40727
#        57419
#        70186
#        82970
#        95086
#        107126
#        116227
#
# Disc length: 1682 seconds
#
# Revision: 3
# Processed by: cddbd v1.5.2PL0 Copyright (c) Steve Scherf et al.
# Submitted via: ExactAudioCopyFreeDBPlugin 1.0
#
DISCID=8406900a
DTITLE=Various Artist - Blue Christmas
DYEAR=2001
DGENRE=Christmas
TTITLE0=Brook Benton - Blue Decorations
TTITLE1=Johnny Adams - Lonesome Christmas
TTITLE2=Charles Brown - Let's Make Every Day Christmas
TTITLE3=The Drifters - Santa Claus Got The Blues
TTITLE4=Brook Benton - I Wish Every Day Could Be Like Christmas
TTITLE5=Louis Armstrong - Christmas In New Orleans
TTITLE6=Jerry Butler - Silent Night
TTITLE7=Johnny Adams - The Little Boy That Santa Forgot
TTITLE8=The Platters - Blue Christmas
TTITLE9=The Drifters - Auld Lang Syne
EXTD=2001
EXTT0=
EXTT1=
EXTT2=
EXTT3=
EXTT4=
EXTT5=
EXTT6=
EXTT7=
EXTT8=
EXTT9=
PLAYORDER=
